<svg xmlns="http://www.w3.org/2000/svg" xmlns:xlink="http://www.w3.org/1999/xlink" width="500" zoomAndPan="magnify" viewBox="0 0 375 374.999991" height="500" preserveAspectRatio="xMidYMid meet" version="1.0"><defs><g/><clipPath id="c2c9b4b50d"><path d="M 49.378906 136.253906 L 119.878906 136.253906 L 119.878906 218.753906 L 49.378906 218.753906 Z M 49.378906 136.253906 " clip-rule="nonzero"/></clipPath></defs><g clip-path="url(#c2c9b4b50d)"><path fill="#ffffff" d="M 101.824219 163.796875 L 97.140625 163.796875 L 99.925781 160.578125 C 100.566406 160.730469 101.226562 160.8125 101.917969 160.8125 C 106.574219 160.8125 110.375 157.035156 110.40625 152.382812 C 110.4375 147.699219 106.644531 143.871094 101.917969 143.851562 C 97.261719 143.851562 93.449219 147.628906 93.429688 152.28125 C 93.417969 153.480469 93.660156 154.667969 94.140625 155.753906 L 87.289062 163.796875 L 84.289062 163.796875 L 75.730469 153.226562 C 76.808594 151.488281 77.398438 149.476562 77.417969 147.417969 C 77.4375 144.449219 76.296875 141.65625 74.214844 139.554688 C 72.128906 137.441406 69.355469 136.273438 66.316406 136.253906 C 60.238281 136.253906 55.253906 141.199219 55.214844 147.285156 C 55.195312 150.25 56.332031 153.042969 58.417969 155.15625 C 60.5 157.269531 63.285156 158.4375 66.316406 158.457031 C 67.109375 158.457031 67.902344 158.375 68.664062 158.210938 L 73.167969 163.820312 L 67.425781 163.820312 C 59.300781 163.796875 49.398438 166.246094 49.398438 183.015625 L 49.398438 200.738281 C 49.398438 210.648438 57.511719 218.753906 67.433594 218.753906 L 101.824219 218.753906 C 111.738281 218.753906 119.859375 210.648438 119.859375 200.738281 L 119.859375 183.015625 C 119.859375 168.113281 109.949219 163.796875 101.824219 163.796875 Z M 103.636719 208.34375 L 65.625 208.34375 C 62.828125 208.34375 60.46875 205.988281 60.46875 203.195312 L 60.492188 183.015625 L 60.492188 179.9375 C 60.59375 177.226562 62.898438 174.96875 65.625 174.96875 L 103.636719 174.96875 C 106.429688 174.96875 108.789062 177.328125 108.789062 180.121094 L 108.769531 200.308594 L 108.789062 200.308594 L 108.789062 203.195312 C 108.789062 205.988281 106.429688 208.34375 103.636719 208.34375 Z M 103.636719 208.34375 " fill-opacity="1" fill-rule="nonzero"/></g><path fill="#ffffff" d="M 76.960938 197.628906 C 76.9375 194.359375 76.917969 188.996094 76.898438 185.726562 C 76.878906 182.457031 79.328125 181.105469 82.132812 182.71875 C 84.929688 184.34375 89.605469 186.996094 92.402344 188.621094 C 95.195312 190.246094 95.257812 192.917969 92.472656 194.570312 C 89.6875 196.226562 84.980469 198.929688 82.195312 200.574219 C 79.417969 202.230469 76.96875 200.898438 76.960938 197.628906 Z M 76.960938 197.628906 " fill-opacity="1" fill-rule="nonzero"/><g fill="#ffffff" fill-opacity="1"><g transform="translate(125.338604, 201.575641)"><g><path d="M 27.6875 0 L 4.390625 0 L 4.390625 -37.484375 L 13.765625 -37.484375 L 13.765625 -8.453125 L 27.6875 -8.453125 Z M 27.6875 0 "/></g></g></g><g fill="#ffffff" fill-opacity="1"><g transform="translate(152.210803, 201.575641)"><g><path d="M 16.015625 -12.15625 L 22.8125 -27.84375 L 31.90625 -27.84375 L 14.71875 10.703125 L 5.78125 10.703125 L 11.625 -2.515625 L -0.265625 -27.84375 L 9.046875 -27.84375 Z M 16.015625 -12.15625 "/></g></g></g><g fill="#ffffff" fill-opacity="1"><g transform="translate(182.080748, 201.575641)"><g><path d="M 19.921875 -28.546875 C 22.097656 -28.546875 24.03125 -28.035156 25.71875 -27.015625 C 27.414062 -25.992188 28.75 -24.59375 29.71875 -22.8125 C 30.6875 -21.03125 31.171875 -18.992188 31.171875 -16.703125 L 31.171875 0 L 22.21875 0 L 22.21875 -14.828125 C 22.21875 -16.578125 21.796875 -17.96875 20.953125 -19 C 20.117188 -20.039062 18.9375 -20.5625 17.40625 -20.5625 C 15.90625 -20.5625 14.679688 -20.035156 13.734375 -18.984375 C 12.785156 -17.929688 12.3125 -16.546875 12.3125 -14.828125 L 12.3125 0 L 3.375 0 L 3.375 -27.84375 L 11.671875 -27.84375 L 11.671875 -25.171875 C 13.890625 -27.421875 16.640625 -28.546875 19.921875 -28.546875 Z M 19.921875 -28.546875 "/></g></g></g><g fill="#ffffff" fill-opacity="1"><g transform="translate(214.306066, 201.575641)"><g><path d="M 19.921875 -28.546875 C 22.097656 -28.546875 24.03125 -28.035156 25.71875 -27.015625 C 27.414062 -25.992188 28.75 -24.59375 29.71875 -22.8125 C 30.6875 -21.03125 31.171875 -18.992188 31.171875 -16.703125 L 31.171875 0 L 22.21875 0 L 22.21875 -14.828125 C 22.21875 -16.578125 21.796875 -17.96875 20.953125 -19 C 20.117188 -20.039062 18.9375 -20.5625 17.40625 -20.5625 C 15.90625 -20.5625 14.679688 -20.035156 13.734375 -18.984375 C 12.785156 -17.929688 12.3125 -16.546875 12.3125 -14.828125 L 12.3125 0 L 3.375 0 L 3.375 -27.84375 L 11.671875 -27.84375 L 11.671875 -25.171875 C 13.890625 -27.421875 16.640625 -28.546875 19.921875 -28.546875 Z M 19.921875 -28.546875 "/></g></g></g><g fill="#ffffff" fill-opacity="1"><g transform="translate(247.112479, 201.575641)"><g><path d="M 31.328125 -37.484375 L 29.765625 -29.296875 L 16.703125 -29.296875 L 15.265625 -21.796875 L 27.84375 -21.796875 L 26.34375 -13.96875 L 13.765625 -13.96875 L 11.078125 0 L 1.71875 0 L 8.890625 -37.484375 Z M 31.328125 -37.484375 "/></g></g></g><g fill="#ffffff" fill-opacity="1"><g transform="translate(274.305868, 201.575641)"><g><path d="M 9.640625 0 L 0.703125 0 L 6.109375 -27.84375 L 15 -27.84375 Z M 15.953125 -32.125 L 6.703125 -32.125 L 8.09375 -39.296875 L 17.34375 -39.296875 Z M 15.953125 -32.125 "/></g></g></g><g fill="#ffffff" fill-opacity="1"><g transform="translate(287.955873, 201.575641)"><g><path d="M 9.953125 0 L 1.015625 0 L 8.40625 -38.546875 L 17.34375 -38.546875 Z M 9.953125 0 "/></g></g></g><g fill="#ffffff" fill-opacity="1"><g transform="translate(302.19472, 201.575641)"><g><path d="M 38.390625 -28.546875 C 41.171875 -28.546875 43.414062 -27.675781 45.125 -25.9375 C 46.84375 -24.207031 47.703125 -21.878906 47.703125 -18.953125 C 47.703125 -17.878906 47.613281 -16.914062 47.4375 -16.0625 L 44.34375 0 L 35.390625 0 L 38.28125 -15 C 38.394531 -15.601562 38.453125 -16.132812 38.453125 -16.59375 C 38.453125 -17.84375 38.128906 -18.816406 37.484375 -19.515625 C 36.835938 -20.210938 35.925781 -20.5625 34.75 -20.5625 C 33.570312 -20.5625 32.570312 -20.164062 31.75 -19.375 C 30.925781 -18.59375 30.359375 -17.414062 30.046875 -15.84375 L 26.984375 0 L 18.046875 0 L 20.9375 -15 C 21.039062 -15.601562 21.09375 -16.132812 21.09375 -16.59375 C 21.09375 -17.84375 20.769531 -18.816406 20.125 -19.515625 C 19.488281 -20.210938 18.582031 -20.5625 17.40625 -20.5625 C 16.226562 -20.5625 15.226562 -20.164062 14.40625 -19.375 C 13.582031 -18.59375 13.007812 -17.414062 12.6875 -15.84375 L 9.640625 0 L 0.703125 0 L 6.109375 -27.84375 L 14.1875 -27.84375 L 13.703125 -25.484375 C 15.847656 -27.523438 18.296875 -28.546875 21.046875 -28.546875 C 22.828125 -28.546875 24.410156 -28.140625 25.796875 -27.328125 C 27.191406 -26.523438 28.25 -25.445312 28.96875 -24.09375 C 31.675781 -27.0625 34.816406 -28.546875 38.390625 -28.546875 Z M 38.390625 -28.546875 "/></g></g></g><g fill="#ffffff" fill-opacity="1"><g transform="translate(173.237367, 213.187119)"><g><path d="M 4.265625 0 L 2.671875 -5.546875 L 2.3125 0 L 0.453125 0 L 0.671875 -3.546875 C 0.753906 -4.984375 0.820312 -6.164062 0.875 -7.09375 L 4.03125 -7.09375 L 5.15625 -2.9375 L 6.265625 -7.09375 L 9.4375 -7.09375 C 9.476562 -6.164062 9.546875 -4.984375 9.640625 -3.546875 L 9.859375 0 L 7.984375 0 L 7.640625 -5.546875 L 6.03125 0 Z M 4.265625 0 "/></g></g></g><g fill="#ffffff" fill-opacity="1"><g transform="translate(186.290773, 213.187119)"><g><path d="M 3.984375 0.078125 C 2.742188 0.078125 1.789062 -0.332031 1.125 -1.15625 C 0.59375 -1.8125 0.328125 -2.585938 0.328125 -3.484375 C 0.328125 -4.429688 0.59375 -5.253906 1.125 -5.953125 C 1.789062 -6.796875 2.742188 -7.21875 3.984375 -7.21875 C 5.203125 -7.21875 6.15625 -6.796875 6.84375 -5.953125 C 7.363281 -5.273438 7.625 -4.453125 7.625 -3.484375 C 7.625 -2.578125 7.363281 -1.800781 6.84375 -1.15625 C 6.15625 -0.332031 5.203125 0.078125 3.984375 0.078125 Z M 2.671875 -1.9375 C 2.992188 -1.550781 3.425781 -1.359375 3.96875 -1.359375 C 4.519531 -1.359375 4.957031 -1.550781 5.28125 -1.9375 C 5.601562 -2.320312 5.765625 -2.835938 5.765625 -3.484375 C 5.765625 -4.160156 5.601562 -4.710938 5.28125 -5.140625 C 4.96875 -5.578125 4.53125 -5.796875 3.96875 -5.796875 C 3.414062 -5.796875 2.976562 -5.578125 2.65625 -5.140625 C 2.34375 -4.710938 2.1875 -4.160156 2.1875 -3.484375 C 2.1875 -2.835938 2.347656 -2.320312 2.671875 -1.9375 Z M 2.671875 -1.9375 "/></g></g></g><g fill="#ffffff" fill-opacity="1"><g transform="translate(196.993449, 213.187119)"><g><path d="M 0.5625 -7.09375 L 3.390625 -7.09375 C 4.617188 -7.09375 5.566406 -6.703125 6.234375 -5.921875 C 6.753906 -5.285156 7.015625 -4.492188 7.015625 -3.546875 C 7.015625 -2.640625 6.753906 -1.863281 6.234375 -1.21875 C 5.554688 -0.40625 4.609375 0 3.390625 0 L 0.5625 0 Z M 2.4375 -5.65625 L 2.4375 -1.4375 L 3.546875 -1.4375 C 4.066406 -1.4375 4.460938 -1.625 4.734375 -2 C 5.015625 -2.382812 5.15625 -2.898438 5.15625 -3.546875 C 5.15625 -4.953125 4.617188 -5.65625 3.546875 -5.65625 Z M 2.4375 -5.65625 "/></g></g></g><g fill="#ffffff" fill-opacity="1"><g transform="translate(207.090264, 213.187119)"><g><path d="M 0.5625 -7.09375 L 5.921875 -7.09375 L 5.921875 -5.65625 L 2.4375 -5.65625 L 2.4375 -4.25 L 5.078125 -4.25 L 5.078125 -2.78125 L 2.4375 -2.78125 L 2.4375 -1.4375 L 5.921875 -1.4375 L 5.921875 0 L 0.5625 0 Z M 0.5625 -7.09375 "/></g></g></g><g fill="#ffffff" fill-opacity="1"><g transform="translate(216.145012, 213.187119)"><g><path d="M 6.71875 -4.578125 C 6.71875 -4.171875 6.609375 -3.765625 6.390625 -3.359375 C 6.179688 -2.953125 5.867188 -2.625 5.453125 -2.375 L 6.578125 0 L 4.515625 0 L 3.546875 -2.0625 L 2.4375 -2.0625 L 2.4375 0 L 0.5625 0 L 0.5625 -7.09375 L 3.875 -7.09375 C 4.8125 -7.09375 5.519531 -6.851562 6 -6.375 C 6.476562 -5.894531 6.71875 -5.296875 6.71875 -4.578125 Z M 2.4375 -3.484375 L 3.78125 -3.484375 C 4.09375 -3.484375 4.347656 -3.582031 4.546875 -3.78125 C 4.753906 -3.976562 4.859375 -4.238281 4.859375 -4.5625 C 4.859375 -4.894531 4.753906 -5.160156 4.546875 -5.359375 C 4.347656 -5.554688 4.09375 -5.65625 3.78125 -5.65625 L 2.4375 -5.65625 Z M 2.4375 -3.484375 "/></g></g></g><g fill="#ffffff" fill-opacity="1"><g transform="translate(225.878314, 213.187119)"><g><path d="M 2.4375 -4.3125 L 2.4375 0 L 0.5625 0 L 0.5625 -7.09375 L 2.671875 -7.09375 L 5.46875 -2.890625 L 5.46875 -7.09375 L 7.328125 -7.09375 L 7.328125 0 L 5.28125 0 Z M 2.4375 -4.3125 "/></g></g></g><g fill="#ffffff" fill-opacity="1"><g transform="translate(236.530331, 213.187119)"><g/></g></g><g fill="#ffffff" fill-opacity="1"><g transform="translate(241.574304, 213.187119)"><g/></g></g><g fill="#ffffff" fill-opacity="1"><g transform="translate(246.608456, 213.187119)"><g><path d="M 7.234375 -1.765625 L 8.171875 -7.09375 L 10.09375 -7.09375 L 8.640625 0 L 6.0625 0 L 5.0625 -3.875 L 4.09375 0 L 1.546875 0 L 0.078125 -7.09375 L 2 -7.09375 L 2.9375 -1.765625 L 4.234375 -7.09375 L 5.875 -7.09375 Z M 7.234375 -1.765625 "/></g></g></g><g fill="#ffffff" fill-opacity="1"><g transform="translate(259.528573, 213.187119)"><g><path d="M 7.546875 0 L 5.578125 0 L 5.078125 -1.4375 L 2.5625 -1.4375 L 2.0625 0 L 0.078125 0 L 2.40625 -7.09375 L 5.21875 -7.09375 Z M 4.765625 -2.90625 L 3.8125 -5.8125 L 2.875 -2.90625 Z M 4.765625 -2.90625 "/></g></g></g><g fill="#ffffff" fill-opacity="1"><g transform="translate(269.916204, 213.187119)"><g><path d="M 4.0625 0 L 2.1875 0 L 2.1875 -5.65625 L 0.140625 -5.65625 L 0.140625 -7.09375 L 6.109375 -7.09375 L 6.109375 -5.65625 L 4.0625 -5.65625 Z M 4.0625 0 "/></g></g></g><g fill="#ffffff" fill-opacity="1"><g transform="translate(278.922478, 213.187119)"><g><path d="M 4.015625 -1.359375 C 4.492188 -1.359375 4.875 -1.445312 5.15625 -1.625 C 5.4375 -1.8125 5.578125 -2.082031 5.578125 -2.4375 L 7.484375 -2.4375 C 7.367188 -1.675781 7.003906 -1.066406 6.390625 -0.609375 C 5.773438 -0.148438 4.984375 0.078125 4.015625 0.078125 C 2.773438 0.078125 1.816406 -0.332031 1.140625 -1.15625 C 0.597656 -1.8125 0.328125 -2.585938 0.328125 -3.484375 C 0.328125 -4.441406 0.597656 -5.265625 1.140625 -5.953125 C 1.816406 -6.796875 2.773438 -7.21875 4.015625 -7.21875 C 4.984375 -7.21875 5.773438 -6.988281 6.390625 -6.53125 C 7.003906 -6.082031 7.367188 -5.476562 7.484375 -4.71875 L 5.578125 -4.71875 C 5.578125 -5.070312 5.441406 -5.335938 5.171875 -5.515625 C 4.898438 -5.703125 4.53125 -5.796875 4.0625 -5.796875 C 3.507812 -5.796875 3.054688 -5.570312 2.703125 -5.125 C 2.359375 -4.6875 2.1875 -4.140625 2.1875 -3.484375 C 2.1875 -2.835938 2.351562 -2.320312 2.6875 -1.9375 C 3.019531 -1.550781 3.460938 -1.359375 4.015625 -1.359375 Z M 4.015625 -1.359375 "/></g></g></g><g fill="#ffffff" fill-opacity="1"><g transform="translate(289.479743, 213.187119)"><g><path d="M 2.4375 0 L 0.5625 0 L 0.5625 -7.09375 L 2.4375 -7.09375 L 2.4375 -4.140625 L 5 -4.140625 L 5 -7.09375 L 6.875 -7.09375 L 6.875 0 L 5 0 L 5 -2.671875 L 2.4375 -2.671875 Z M 2.4375 0 "/></g></g></g><g fill="#ffffff" fill-opacity="1"><g transform="translate(299.673499, 213.187119)"><g/></g></g><g fill="#ffffff" fill-opacity="1"><g transform="translate(304.71747, 213.187119)"><g><path d="M 7.546875 0 L 5.578125 0 L 5.078125 -1.4375 L 2.5625 -1.4375 L 2.0625 0 L 0.078125 0 L 2.40625 -7.09375 L 5.21875 -7.09375 Z M 4.765625 -2.90625 L 3.8125 -5.8125 L 2.875 -2.90625 Z M 4.765625 -2.90625 "/></g></g></g><g fill="#ffffff" fill-opacity="1"><g transform="translate(315.1051, 213.187119)"><g><path d="M 0.5625 0 L 0.5625 -7.09375 L 3.796875 -7.09375 C 4.734375 -7.09375 5.453125 -6.847656 5.953125 -6.359375 C 6.460938 -5.878906 6.71875 -5.285156 6.71875 -4.578125 C 6.71875 -3.878906 6.460938 -3.28125 5.953125 -2.78125 C 5.453125 -2.289062 4.734375 -2.046875 3.796875 -2.046875 L 2.4375 -2.046875 L 2.4375 0 Z M 2.4375 -3.484375 L 3.78125 -3.484375 C 4.09375 -3.484375 4.347656 -3.582031 4.546875 -3.78125 C 4.753906 -3.976562 4.859375 -4.238281 4.859375 -4.5625 C 4.859375 -4.894531 4.753906 -5.160156 4.546875 -5.359375 C 4.347656 -5.554688 4.09375 -5.65625 3.78125 -5.65625 L 2.4375 -5.65625 Z M 2.4375 -3.484375 "/></g></g></g><g fill="#ffffff" fill-opacity="1"><g transform="translate(324.777818, 213.187119)"><g><path d="M 0.5625 0 L 0.5625 -7.09375 L 3.796875 -7.09375 C 4.734375 -7.09375 5.453125 -6.847656 5.953125 -6.359375 C 6.460938 -5.878906 6.71875 -5.285156 6.71875 -4.578125 C 6.71875 -3.878906 6.460938 -3.28125 5.953125 -2.78125 C 5.453125 -2.289062 4.734375 -2.046875 3.796875 -2.046875 L 2.4375 -2.046875 L 2.4375 0 Z M 2.4375 -3.484375 L 3.78125 -3.484375 C 4.09375 -3.484375 4.347656 -3.582031 4.546875 -3.78125 C 4.753906 -3.976562 4.859375 -4.238281 4.859375 -4.5625 C 4.859375 -4.894531 4.753906 -5.160156 4.546875 -5.359375 C 4.347656 -5.554688 4.09375 -5.65625 3.78125 -5.65625 L 2.4375 -5.65625 Z M 2.4375 -3.484375 "/></g></g></g></svg>